<svg width="1440" height="609" viewBox="0 0 1440 609" fill="none" xmlns="http://www.w3.org/2000/svg">
<path d="M-0.289246 47.8958C75.2544 56.8744 103.524 0 179.781 0C256.038 0 283.594 58.2511 359.851 58.2511C436.109 58.2511 463.664 0 539.922 0C616.179 0 643.735 58.2511 719.992 58.2511C796.25 58.2511 823.805 0 900.062 0C976.32 0 1003.88 58.2511 1080.13 58.2511C1156.39 58.2511 1183.95 0 1260.2 0C1336.46 0 1364.73 56.8744 1440.27 47.8958C1731.12 13.3279 1732.7 630.967 1440.27 608.374C1365.71 602.614 1335.81 549.694 1260.95 549.694C1186.1 549.694 1154.49 608.374 1079.63 608.374C1004.77 608.374 975.171 549.694 900.313 549.694C825.454 549.694 793.85 608.431 718.992 608.374C644.317 608.317 614.846 549.694 540.172 549.694C465.497 549.694 434.026 608.374 359.351 608.374C284.677 608.374 255.206 549.694 180.531 549.694C105.857 549.694 74.077 602.527 -0.289246 608.374C-292.671 631.362 -291.135 13.3279 -0.289246 47.8958Z" fill="#FFEEE1"/>
</svg>
