<svg xmlns="http://www.w3.org/2000/svg" width="1440" height="921" viewBox="0 0 1440 921" fill="none">
  <path d="M1.21436 57.4255C76.7285 67.8301 104.987 0 181.214 0C257.442 0 284.987 69.4255 361.214 69.4255C437.442 69.4255 464.987 0 541.214 0C617.442 0 644.987 69.4255 721.214 69.4255C797.442 69.4255 824.987 0 901.214 0C977.442 0 1004.99 69.4255 1081.21 69.4255C1157.44 69.4255 1184.99 0 1261.21 0C1337.44 0 1365.7 67.8301 1441.21 57.4255C1731.95 17.3673 1441.21 921 1441.21 921H1.21436C1.21436 921 -289.518 17.3673 1.21436 57.4255Z" fill="#FFF3E9"/>
</svg>