<svg width="1440" height="711" viewBox="0 0 1440 711" fill="none" xmlns="http://www.w3.org/2000/svg">
<path d="M-0.000198364 1.99998C75.5139 12.4046 103.772 77.5 180 77.5C256.227 77.5 283.772 14 360 14C436.227 14 463.772 77.5 540 77.5C616.227 77.5 643.772 14 720 14C796.227 14 823.772 77.5 900 77.5C976.227 77.5 1003.77 14 1080 14C1156.23 14 1183.77 77.5 1260 77.5C1336.23 77.5 1364.49 12.4046 1440 1.99998C1730.73 -38.0582 1732.31 736.181 1440 710C1365.47 703.325 1334.58 645 1259.75 645C1184.92 645 1154.33 710 1079.5 710C1004.67 710 974.079 645 899.25 645C824.421 645 793.829 710.066 719 710C644.354 709.934 613.895 645 539.25 645C464.604 645 434.145 710 359.5 710C284.854 710 254.395 645 179.75 645C105.104 645 74.337 703.224 -0.000198364 710C-292.268 736.64 -290.732 -38.0582 -0.000198364 1.99998Z" fill="#FFE7D3"/>
</svg>
